<svg width="310" height="44" viewBox="0 0 310 44" fill="none" xmlns="http://www.w3.org/2000/svg">
<g clip-path="url(#clip0_1629_4690)">
<path d="M30.7692 15.8462V23.8462C30.7694 23.9305 30.7522 24.014 30.7188 24.0915C30.6853 24.1689 30.6363 24.2387 30.5748 24.2964C30.5132 24.3541 30.4405 24.3985 30.3611 24.4269C30.2816 24.4553 30.1972 24.4671 30.113 24.4615C29.9548 24.4479 29.8075 24.3749 29.7009 24.2572C29.5943 24.1395 29.5363 23.9857 29.5384 23.8269V15.8462C29.5386 15.7617 29.5214 15.678 29.4879 15.6005C29.4543 15.5229 29.4052 15.4531 29.3435 15.3953C29.2818 15.3376 29.2088 15.2932 29.1292 15.2649C29.0496 15.2366 28.965 15.225 28.8807 15.2308C28.7225 15.2451 28.5755 15.3187 28.4692 15.4368C28.363 15.5549 28.3052 15.7088 28.3076 15.8677V26C28.3076 26.0816 28.2752 26.1599 28.2175 26.2176C28.1598 26.2753 28.0815 26.3077 27.9999 26.3077H17.5384C17.4568 26.3077 17.3785 26.2753 17.3208 26.2176C17.2631 26.1599 17.2307 26.0816 17.2307 26V15.8462C17.2307 15.3565 17.4252 14.8869 17.7714 14.5407C18.1177 14.1945 18.5872 14 19.0769 14H28.923C29.4127 14 29.8822 14.1945 30.2284 14.5407C30.5747 14.8869 30.7692 15.3565 30.7692 15.8462ZM27.9999 27.5385H17.5384C17.4568 27.5385 17.3785 27.5709 17.3208 27.6286C17.2631 27.6863 17.2307 27.7645 17.2307 27.8462V28.7692C17.2307 29.0957 17.3604 29.4087 17.5912 29.6395C17.822 29.8703 18.1351 30 18.4615 30H27.0769C27.4033 30 27.7163 29.8703 27.9472 29.6395C28.178 29.4087 28.3076 29.0957 28.3076 28.7692V27.8462C28.3076 27.7645 28.2752 27.6863 28.2175 27.6286C28.1598 27.5709 28.0815 27.5385 27.9999 27.5385Z" fill="white"/>
</g>
<path d="M45.778 27.098C45.61 27.098 45.4793 27.0513 45.386 26.958C45.2927 26.8553 45.246 26.7153 45.246 26.538V17.592C45.246 17.4053 45.2927 17.2653 45.386 17.172C45.4793 17.0787 45.61 17.032 45.778 17.032C45.9273 17.032 46.044 17.0647 46.128 17.13C46.2213 17.186 46.3053 17.284 46.38 17.424L50.216 24.648H49.796L53.618 17.424C53.6927 17.284 53.772 17.186 53.856 17.13C53.94 17.0647 54.0613 17.032 54.22 17.032C54.3787 17.032 54.5047 17.0787 54.598 17.172C54.6913 17.2653 54.738 17.4053 54.738 17.592V26.538C54.738 26.7153 54.6913 26.8553 54.598 26.958C54.514 27.0513 54.3833 27.098 54.206 27.098C54.038 27.098 53.9073 27.0513 53.814 26.958C53.7207 26.8553 53.674 26.7153 53.674 26.538V18.67H54.01L50.51 25.236C50.4447 25.3573 50.3747 25.446 50.3 25.502C50.2347 25.5487 50.1367 25.572 50.006 25.572C49.8753 25.572 49.7727 25.544 49.698 25.488C49.6233 25.432 49.558 25.348 49.502 25.236L45.96 18.656H46.296V26.538C46.296 26.7153 46.2493 26.8553 46.156 26.958C46.072 27.0513 45.946 27.098 45.778 27.098ZM59.1826 27.126C58.7159 27.126 58.2959 27.0373 57.9226 26.86C57.5586 26.6733 57.2692 26.4213 57.0546 26.104C56.8399 25.7867 56.7326 25.432 56.7326 25.04C56.7326 24.536 56.8586 24.1393 57.1106 23.85C57.3719 23.5607 57.7966 23.3553 58.3846 23.234C58.9819 23.1127 59.7939 23.052 60.8206 23.052H61.4506V23.794H60.8346C60.0786 23.794 59.4812 23.8313 59.0426 23.906C58.6132 23.9713 58.3099 24.088 58.1326 24.256C57.9646 24.424 57.8806 24.662 57.8806 24.97C57.8806 25.3527 58.0112 25.6653 58.2726 25.908C58.5432 26.1507 58.9072 26.272 59.3646 26.272C59.7379 26.272 60.0646 26.1833 60.3446 26.006C60.6339 25.8287 60.8579 25.586 61.0166 25.278C61.1846 24.97 61.2686 24.6153 61.2686 24.214V22.618C61.2686 22.0393 61.1519 21.624 60.9186 21.372C60.6852 21.1107 60.3026 20.98 59.7706 20.98C59.4439 20.98 59.1172 21.022 58.7906 21.106C58.4639 21.19 58.1186 21.3253 57.7546 21.512C57.6239 21.5773 57.5119 21.6007 57.4186 21.582C57.3252 21.554 57.2506 21.5027 57.1946 21.428C57.1386 21.3533 57.1059 21.2693 57.0966 21.176C57.0872 21.0733 57.1059 20.9753 57.1526 20.882C57.2086 20.7887 57.2926 20.714 57.4046 20.658C57.8152 20.4527 58.2212 20.3033 58.6226 20.21C59.0239 20.1167 59.4066 20.07 59.7706 20.07C60.3586 20.07 60.8439 20.168 61.2266 20.364C61.6092 20.5507 61.8939 20.84 62.0806 21.232C62.2672 21.6147 62.3606 22.1093 62.3606 22.716V26.51C62.3606 26.6967 62.3139 26.8413 62.2206 26.944C62.1366 27.0467 62.0106 27.098 61.8426 27.098C61.6652 27.098 61.5299 27.0467 61.4366 26.944C61.3432 26.8413 61.2966 26.6967 61.2966 26.51V25.418H61.4226C61.3479 25.7727 61.2032 26.076 60.9886 26.328C60.7832 26.58 60.5266 26.776 60.2186 26.916C59.9106 27.056 59.5652 27.126 59.1826 27.126ZM66.7604 27.126C66.3404 27.126 65.9157 27.0747 65.4864 26.972C65.0664 26.8693 64.6744 26.692 64.3104 26.44C64.2171 26.3747 64.1517 26.3 64.1144 26.216C64.0771 26.1227 64.0631 26.034 64.0724 25.95C64.0911 25.8567 64.1284 25.7773 64.1844 25.712C64.2497 25.6467 64.3244 25.6093 64.4084 25.6C64.5017 25.5813 64.6044 25.6 64.7164 25.656C65.0804 25.88 65.4304 26.0387 65.7664 26.132C66.1117 26.216 66.4524 26.258 66.7884 26.258C67.3204 26.258 67.7217 26.16 67.9924 25.964C68.2631 25.768 68.3984 25.502 68.3984 25.166C68.3984 24.9047 68.3097 24.6993 68.1324 24.55C67.9551 24.3913 67.6751 24.27 67.2924 24.186L66.0184 23.906C65.4304 23.7847 64.9917 23.5747 64.7024 23.276C64.4224 22.9773 64.2824 22.59 64.2824 22.114C64.2824 21.694 64.3897 21.3347 64.6044 21.036C64.8284 20.728 65.1411 20.49 65.5424 20.322C65.9437 20.154 66.4104 20.07 66.9424 20.07C67.3531 20.07 67.7404 20.126 68.1044 20.238C68.4777 20.3407 68.8137 20.5087 69.1124 20.742C69.2057 20.8073 69.2664 20.8867 69.2944 20.98C69.3317 21.064 69.3364 21.1527 69.3084 21.246C69.2897 21.33 69.2477 21.4047 69.1824 21.47C69.1171 21.526 69.0377 21.5587 68.9444 21.568C68.8511 21.5773 68.7531 21.5493 68.6504 21.484C68.3704 21.2973 68.0857 21.162 67.7964 21.078C67.5071 20.9847 67.2224 20.938 66.9424 20.938C66.4197 20.938 66.0231 21.0407 65.7524 21.246C65.4817 21.4513 65.3464 21.722 65.3464 22.058C65.3464 22.3193 65.4304 22.534 65.5984 22.702C65.7664 22.87 66.0277 22.9913 66.3824 23.066L67.6564 23.332C68.2631 23.4627 68.7157 23.6727 69.0144 23.962C69.3224 24.242 69.4764 24.6247 69.4764 25.11C69.4764 25.726 69.2291 26.216 68.7344 26.58C68.2397 26.944 67.5817 27.126 66.7604 27.126ZM73.5006 27.126C73.0806 27.126 72.656 27.0747 72.2266 26.972C71.8066 26.8693 71.4146 26.692 71.0506 26.44C70.9573 26.3747 70.892 26.3 70.8546 26.216C70.8173 26.1227 70.8033 26.034 70.8126 25.95C70.8313 25.8567 70.8686 25.7773 70.9246 25.712C70.99 25.6467 71.0646 25.6093 71.1486 25.6C71.242 25.5813 71.3446 25.6 71.4566 25.656C71.8206 25.88 72.1706 26.0387 72.5066 26.132C72.852 26.216 73.1926 26.258 73.5286 26.258C74.0606 26.258 74.462 26.16 74.7326 25.964C75.0033 25.768 75.1386 25.502 75.1386 25.166C75.1386 24.9047 75.05 24.6993 74.8726 24.55C74.6953 24.3913 74.4153 24.27 74.0326 24.186L72.7586 23.906C72.1706 23.7847 71.732 23.5747 71.4426 23.276C71.1626 22.9773 71.0226 22.59 71.0226 22.114C71.0226 21.694 71.13 21.3347 71.3446 21.036C71.5686 20.728 71.8813 20.49 72.2826 20.322C72.684 20.154 73.1506 20.07 73.6826 20.07C74.0933 20.07 74.4806 20.126 74.8446 20.238C75.218 20.3407 75.554 20.5087 75.8526 20.742C75.946 20.8073 76.0066 20.8867 76.0346 20.98C76.072 21.064 76.0766 21.1527 76.0486 21.246C76.03 21.33 75.988 21.4047 75.9226 21.47C75.8573 21.526 75.778 21.5587 75.6846 21.568C75.5913 21.5773 75.4933 21.5493 75.3906 21.484C75.1106 21.2973 74.826 21.162 74.5366 21.078C74.2473 20.9847 73.9626 20.938 73.6826 20.938C73.16 20.938 72.7633 21.0407 72.4926 21.246C72.222 21.4513 72.0866 21.722 72.0866 22.058C72.0866 22.3193 72.1706 22.534 72.3386 22.702C72.5066 22.87 72.768 22.9913 73.1226 23.066L74.3966 23.332C75.0033 23.4627 75.456 23.6727 75.7546 23.962C76.0626 24.242 76.2166 24.6247 76.2166 25.11C76.2166 25.726 75.9693 26.216 75.4746 26.58C74.98 26.944 74.322 27.126 73.5006 27.126ZM80.0869 27.126C79.6202 27.126 79.2002 27.0373 78.8269 26.86C78.4629 26.6733 78.1735 26.4213 77.9589 26.104C77.7442 25.7867 77.6369 25.432 77.6369 25.04C77.6369 24.536 77.7629 24.1393 78.0149 23.85C78.2762 23.5607 78.7009 23.3553 79.2889 23.234C79.8862 23.1127 80.6982 23.052 81.7249 23.052H82.3549V23.794H81.7389C80.9829 23.794 80.3855 23.8313 79.9469 23.906C79.5175 23.9713 79.2142 24.088 79.0369 24.256C78.8689 24.424 78.7849 24.662 78.7849 24.97C78.7849 25.3527 78.9155 25.6653 79.1769 25.908C79.4475 26.1507 79.8115 26.272 80.2689 26.272C80.6422 26.272 80.9689 26.1833 81.2489 26.006C81.5382 25.8287 81.7622 25.586 81.9209 25.278C82.0889 24.97 82.1729 24.6153 82.1729 24.214V22.618C82.1729 22.0393 82.0562 21.624 81.8229 21.372C81.5895 21.1107 81.2069 20.98 80.6749 20.98C80.3482 20.98 80.0215 21.022 79.6949 21.106C79.3682 21.19 79.0229 21.3253 78.6589 21.512C78.5282 21.5773 78.4162 21.6007 78.3229 21.582C78.2295 21.554 78.1549 21.5027 78.0989 21.428C78.0429 21.3533 78.0102 21.2693 78.0009 21.176C77.9915 21.0733 78.0102 20.9753 78.0569 20.882C78.1129 20.7887 78.1969 20.714 78.3089 20.658C78.7195 20.4527 79.1255 20.3033 79.5269 20.21C79.9282 20.1167 80.3109 20.07 80.6749 20.07C81.2629 20.07 81.7482 20.168 82.1309 20.364C82.5135 20.5507 82.7982 20.84 82.9849 21.232C83.1715 21.6147 83.2649 22.1093 83.2649 22.716V26.51C83.2649 26.6967 83.2182 26.8413 83.1249 26.944C83.0409 27.0467 82.9149 27.098 82.7469 27.098C82.5695 27.098 82.4342 27.0467 82.3409 26.944C82.2475 26.8413 82.2009 26.6967 82.2009 26.51V25.418H82.3269C82.2522 25.7727 82.1075 26.076 81.8929 26.328C81.6875 26.58 81.4309 26.776 81.1229 26.916C80.8149 27.056 80.4695 27.126 80.0869 27.126ZM88.3787 29.646C87.884 29.646 87.3987 29.5853 86.9227 29.464C86.456 29.352 86.0314 29.17 85.6487 28.918C85.5367 28.8527 85.462 28.7733 85.4247 28.68C85.3967 28.5867 85.392 28.4933 85.4107 28.4C85.4294 28.316 85.4714 28.2367 85.5367 28.162C85.602 28.0967 85.6767 28.0547 85.7607 28.036C85.854 28.0173 85.9474 28.0313 86.0407 28.078C86.4514 28.33 86.8434 28.5027 87.2167 28.596C87.59 28.6893 87.9587 28.736 88.3227 28.736C88.9854 28.736 89.4847 28.5587 89.8207 28.204C90.166 27.8493 90.3387 27.336 90.3387 26.664V25.082H90.4787C90.3387 25.6233 90.04 26.0527 89.5827 26.37C89.1347 26.6873 88.6074 26.846 88.0007 26.846C87.3754 26.846 86.834 26.706 86.3767 26.426C85.9194 26.1367 85.5647 25.7353 85.3127 25.222C85.07 24.7087 84.9487 24.116 84.9487 23.444C84.9487 22.94 85.0187 22.4827 85.1587 22.072C85.2987 21.652 85.4994 21.2973 85.7607 21.008C86.0314 20.7093 86.3534 20.4807 86.7267 20.322C87.1094 20.154 87.534 20.07 88.0007 20.07C88.6167 20.07 89.1487 20.2287 89.5967 20.546C90.0447 20.854 90.334 21.274 90.4647 21.806L90.3247 21.974V20.672C90.3247 20.4853 90.3714 20.3453 90.4647 20.252C90.5674 20.1493 90.7074 20.098 90.8847 20.098C91.0714 20.098 91.2114 20.1493 91.3047 20.252C91.398 20.3453 91.4447 20.4853 91.4447 20.672V26.51C91.4447 27.546 91.1834 28.3253 90.6607 28.848C90.1474 29.38 89.3867 29.646 88.3787 29.646ZM88.2107 25.922C88.6494 25.922 89.0274 25.824 89.3447 25.628C89.662 25.4227 89.9047 25.1333 90.0727 24.76C90.25 24.3867 90.3387 23.948 90.3387 23.444C90.3387 22.688 90.1474 22.0907 89.7647 21.652C89.382 21.204 88.864 20.98 88.2107 20.98C87.7814 20.98 87.408 21.0827 87.0907 21.288C86.7734 21.484 86.526 21.7687 86.3487 22.142C86.1807 22.506 86.0967 22.94 86.0967 23.444C86.0967 24.2 86.288 24.802 86.6707 25.25C87.0534 25.698 87.5667 25.922 88.2107 25.922ZM96.6378 27.126C95.9191 27.126 95.2985 26.986 94.7758 26.706C94.2625 26.4167 93.8611 26.0107 93.5718 25.488C93.2918 24.9653 93.1518 24.34 93.1518 23.612C93.1518 22.9027 93.2918 22.2867 93.5718 21.764C93.8518 21.232 94.2345 20.8167 94.7198 20.518C95.2145 20.2193 95.7838 20.07 96.4278 20.07C96.8851 20.07 97.2958 20.1493 97.6598 20.308C98.0238 20.4573 98.3318 20.6767 98.5838 20.966C98.8451 21.2553 99.0411 21.6053 99.1718 22.016C99.3118 22.4267 99.3818 22.8887 99.3818 23.402C99.3818 23.5513 99.3398 23.6633 99.2558 23.738C99.1718 23.8033 99.0505 23.836 98.8918 23.836H94.0198V23.094H98.6258L98.4018 23.276C98.4018 22.772 98.3271 22.3473 98.1778 22.002C98.0285 21.6473 97.8091 21.3767 97.5198 21.19C97.2398 21.0033 96.8851 20.91 96.4558 20.91C95.9798 20.91 95.5738 21.022 95.2378 21.246C94.9111 21.4607 94.6638 21.764 94.4958 22.156C94.3278 22.5387 94.2438 22.9867 94.2438 23.5V23.584C94.2438 24.4427 94.4491 25.096 94.8598 25.544C95.2798 25.992 95.8725 26.216 96.6378 26.216C96.9551 26.216 97.2678 26.174 97.5758 26.09C97.8931 26.006 98.2011 25.866 98.4998 25.67C98.6305 25.586 98.7471 25.5487 98.8498 25.558C98.9618 25.558 99.0505 25.5907 99.1158 25.656C99.1811 25.712 99.2231 25.7867 99.2418 25.88C99.2698 25.964 99.2605 26.0573 99.2138 26.16C99.1765 26.2627 99.0971 26.3513 98.9758 26.426C98.6678 26.65 98.3038 26.8227 97.8838 26.944C97.4638 27.0653 97.0485 27.126 96.6378 27.126ZM101.611 27.098C101.424 27.098 101.284 27.0467 101.191 26.944C101.098 26.8413 101.051 26.6967 101.051 26.51V20.672C101.051 20.4853 101.098 20.3453 101.191 20.252C101.284 20.1493 101.42 20.098 101.597 20.098C101.774 20.098 101.91 20.1493 102.003 20.252C102.106 20.3453 102.157 20.4853 102.157 20.672V21.904L102.003 21.708C102.18 21.1853 102.465 20.784 102.857 20.504C103.258 20.2147 103.734 20.07 104.285 20.07C104.864 20.07 105.33 20.21 105.685 20.49C106.049 20.7607 106.292 21.1853 106.413 21.764H106.203C106.371 21.2413 106.67 20.8307 107.099 20.532C107.538 20.224 108.046 20.07 108.625 20.07C109.138 20.07 109.558 20.168 109.885 20.364C110.221 20.56 110.473 20.8587 110.641 21.26C110.809 21.652 110.893 22.1513 110.893 22.758V26.51C110.893 26.6967 110.842 26.8413 110.739 26.944C110.646 27.0467 110.506 27.098 110.319 27.098C110.142 27.098 110.002 27.0467 109.899 26.944C109.806 26.8413 109.759 26.6967 109.759 26.51V22.814C109.759 22.1887 109.652 21.7313 109.437 21.442C109.222 21.1433 108.858 20.994 108.345 20.994C107.785 20.994 107.342 21.19 107.015 21.582C106.698 21.9647 106.539 22.4873 106.539 23.15V26.51C106.539 26.6967 106.488 26.8413 106.385 26.944C106.292 27.0467 106.152 27.098 105.965 27.098C105.788 27.098 105.648 27.0467 105.545 26.944C105.452 26.8413 105.405 26.6967 105.405 26.51V22.814C105.405 22.1887 105.293 21.7313 105.069 21.442C104.854 21.1433 104.495 20.994 103.991 20.994C103.431 20.994 102.988 21.19 102.661 21.582C102.344 21.9647 102.185 22.4873 102.185 23.15V26.51C102.185 26.902 101.994 27.098 101.611 27.098Z" fill="white"/>
<defs>
<clipPath id="clip0_1629_4690">
<rect width="16" height="16" fill="white" transform="translate(16 14)"/>
</clipPath>
</defs>
</svg>
